<?xml version="1.0" encoding="UTF-8" standalone="no"?>
<svg width="36px" height="36px" viewBox="0 0 36 36" version="1.1" xmlns="http://www.w3.org/2000/svg" xmlns:xlink="http://www.w3.org/1999/xlink">
    <!-- Generator: Sketch 3.8.3 (29802) - http://www.bohemiancoding.com/sketch -->
    <title>info copy</title>
    <desc>Created with Sketch.</desc>
    <defs></defs>
    <g id="舒途" stroke="none" stroke-width="1" fill="none" fill-rule="evenodd">
        <g id="个人中心（VIP）" transform="translate(-169.000000, -614.000000)" fill="#FFE300">
            <g id="navigation" transform="translate(0.000000, 608.000000)">
                <g id="info-copy" transform="translate(169.000000, 6.000000)">
                    <g id="Capa_1">
                        <path d="M18.7011568,0 C9.17494094,0 1.45231772,7.66036364 1.45231772,17.1102545 C1.45231772,20.0929455 2.22474134,22.8950545 3.576611,25.336 L0.133808554,33.7880727 C-0.107046843,34.3784727 0.0318207739,35.0536727 0.485670061,35.5039273 C0.938492872,35.9541091 1.61992668,36.0919273 2.21498982,35.8531636 L10.918558,32.3656727 C13.2598778,33.5428364 15.8978493,34.2205091 18.7011568,34.2205091 C28.2286925,34.2205091 35.9514623,26.5601455 35.9514623,17.1102545 C35.9514623,7.66036364 28.2287658,0 18.7011568,0 L18.7011568,0 Z M18.682167,6.89832727 C20.3586232,6.89832727 21.7178248,8.24654545 21.7178248,9.90952727 C21.7178248,11.5725091 20.3586232,12.9206545 18.682167,12.9206545 C17.0057108,12.9206545 15.6462892,11.5725091 15.6462892,9.90952727 C15.6462892,8.24654545 17.0056375,6.89832727 18.682167,6.89832727 L18.682167,6.89832727 Z M21.7478126,25.9269818 C21.7478126,26.6978909 21.1178493,27.3226909 20.3407332,27.3226909 L17.0235275,27.3226909 C16.2463381,27.3226909 15.6165214,26.6978909 15.6165214,25.9269818 L15.6165214,14.4226909 C16.4918859,15.0101091 17.5481303,15.3533818 18.6822403,15.3533818 C19.816277,15.3533818 20.8724481,15.0100364 21.7479593,14.4226909 L21.7479593,25.9269818 L21.7478126,25.9269818 Z" id="XMLID_140_"></path>
                    </g>
                </g>
            </g>
        </g>
    </g>
</svg>