<?xml version="1.0" encoding="UTF-8" standalone="no"?>
<svg width="24px" height="24px" viewBox="0 0 24 24" version="1.1" xmlns="http://www.w3.org/2000/svg" xmlns:xlink="http://www.w3.org/1999/xlink">
    <!-- Generator: Sketch 3.8.3 (29802) - http://www.bohemiancoding.com/sketch -->
    <title>info copy</title>
    <desc>Created with Sketch.</desc>
    <defs></defs>
    <g id="Symbols" stroke="none" stroke-width="1" fill="none" fill-rule="evenodd">
        <g id="Tab-Bar" transform="translate(-175.000000, -7.000000)" fill="#009CE6">
            <g id="info-copy">
                <g transform="translate(175.000000, 7.000000)">
                    <g id="Capa_1">
                        <path d="M12.4674379,0 C6.11662729,0 0.968211813,5.10690909 0.968211813,11.4068364 C0.968211813,13.395297 1.4831609,15.2633697 2.38440733,16.8906667 L0.0892057026,22.5253818 C-0.0713645621,22.9189818 0.0212138493,23.3691152 0.323780041,23.6692848 C0.625661914,23.9694061 1.07995112,24.0612848 1.47665988,23.9021091 L7.2790387,21.5771152 C8.83991853,22.3618909 10.5985662,22.8136727 12.4674379,22.8136727 C18.8191283,22.8136727 23.9676415,17.7067636 23.9676415,11.4068364 C23.9676415,5.10690909 18.8191772,0 12.4674379,0 L12.4674379,0 Z M12.454778,4.59888485 C13.5724155,4.59888485 14.4785499,5.49769697 14.4785499,6.60635152 C14.4785499,7.71500606 13.5724155,8.6137697 12.454778,8.6137697 C11.3371405,8.6137697 10.4308595,7.71500606 10.4308595,6.60635152 C10.4308595,5.49769697 11.3370916,4.59888485 12.454778,4.59888485 L12.454778,4.59888485 Z M14.4985418,17.2846545 C14.4985418,17.7985939 14.0785662,18.2151273 13.5604888,18.2151273 L11.3490183,18.2151273 C10.8308921,18.2151273 10.4110143,17.7985939 10.4110143,17.2846545 L10.4110143,9.61512727 C10.9945906,10.0067394 11.6987536,10.2355879 12.4548269,10.2355879 C13.2108513,10.2355879 13.9149654,10.0066909 14.4986395,9.61512727 L14.4986395,17.2846545 L14.4985418,17.2846545 Z" id="XMLID_140_"></path>
                    </g>
                </g>
            </g>
        </g>
    </g>
</svg>