<?xml version="1.0" encoding="UTF-8" standalone="no"?>
<svg width="24px" height="24px" viewBox="0 0 24 24" version="1.1" xmlns="http://www.w3.org/2000/svg" xmlns:xlink="http://www.w3.org/1999/xlink">
    <!-- Generator: Sketch 3.8.3 (29802) - http://www.bohemiancoding.com/sketch -->
    <title>plane-outline copy</title>
    <desc>Created with Sketch.</desc>
    <defs></defs>
    <g id="Symbols" stroke="none" stroke-width="1" fill="none" fill-rule="evenodd" opacity="0.3">
        <g id="Tab-Bar" transform="translate(-100.000000, -7.000000)" fill="#000000">
            <g id="plane-outline-copy">
                <g transform="translate(100.000000, 7.000000)">
                    <g id="Capa_1">
                        <path d="M23.3954118,0.606039216 C22.9892549,0.204862745 22.4844706,0.0205098039 21.8989412,0.0205098039 C21.2872941,0.0205098039 20.6479216,0.212901961 19.9596471,0.593019608 C19.2813725,0.967568627 18.6713725,1.39984314 18.1377647,1.86847059 L18.1116863,1.86847059 C18.0075686,1.95952941 17.6821569,2.27188235 17.1227059,2.83133333 C16.5630196,3.39101961 16.0945882,3.85968627 15.7170196,4.26309804 L4.40788235,1.03552941 C4.13745098,0.958352941 3.90090196,1.03607843 3.71796078,1.21768627 L1.83086275,3.09172549 C1.66121569,3.26023529 1.60321569,3.45517647 1.63568627,3.70337255 C1.66819608,3.94992157 1.79172549,4.12011765 2.01329412,4.23698039 L10.9929412,8.97407843 L6.33388235,13.6461961 L2.57270588,13.7763922 C2.39054902,13.7828235 2.234,13.8408235 2.09129412,13.9846667 L0.23027451,15.8587059 C0.0611764706,16.028902 -0.0301568627,16.2229804 0.00898039216,16.4964314 C0.0739607843,16.7696471 0.217215686,16.9517647 0.464588235,17.0298431 L5.05839216,18.9430588 L6.97160784,23.537098 C7.06654902,23.7650196 7.23176471,23.9143922 7.50521569,23.9794118 L7.63513725,23.9794118 C7.83031373,23.9794118 7.99968627,23.9143922 8.14266667,23.7711373 L10.0036863,21.9100784 C10.1469412,21.7671373 10.2191373,21.5977255 10.2249804,21.4287059 L10.3551765,17.6675294 L15.0142745,13.0084314 L19.7643922,21.9884314 C19.8815686,22.2097255 20.051451,22.3332549 20.298,22.3657255 C20.5461961,22.3985098 20.74,22.3141176 20.9096471,22.1444314 L22.7706667,20.2833725 C22.9658824,20.0881961 23.0430196,19.8638824 22.9658824,19.5937255 L19.7385882,8.28435294 L22.0810196,5.94164706 C22.4844314,5.53823529 22.9319608,4.99462745 23.3823137,4.17168627 C23.6088627,3.75827451 23.7757255,3.35262745 23.8898431,2.94839216 C24.1142353,2.15552941 24.0176078,1.22015686 23.3954118,0.606039216 L23.3954118,0.606039216 Z" id="Shape"></path>
                    </g>
                </g>
            </g>
        </g>
    </g>
</svg>