<?xml version="1.0" encoding="UTF-8" standalone="no"?>
<svg width="24px" height="24px" viewBox="0 0 24 24" version="1.1" xmlns="http://www.w3.org/2000/svg" xmlns:xlink="http://www.w3.org/1999/xlink">
    <!-- Generator: Sketch 3.8.3 (29802) - http://www.bohemiancoding.com/sketch -->
    <title>home-button copy</title>
    <desc>Created with Sketch.</desc>
    <defs></defs>
    <g id="Symbols" stroke="none" stroke-width="1" fill="none" fill-rule="evenodd">
        <g id="Tab-Bar" transform="translate(-25.000000, -7.000000)" fill="#009CE5">
            <g id="home-button-copy">
                <g transform="translate(25.000000, 7.000000)">
                    <g id="Capa_1">
                        <path d="M23.6829197,11.077848 L12.898073,0.404895277 C12.3955182,-0.0927474333 11.5814015,-0.0927474333 11.0855474,0.404895277 L0.304072993,11.077848 C-0.198481752,11.5754908 -0.0644671533,11.9789076 0.605605839,11.9789076 L3.93249635,11.9789076 L3.93249635,22.9081725 C3.93249635,23.5038357 4.3680438,23.9976838 4.90072993,23.9976838 L8.97140146,23.9976838 L8.97140146,16.80823 C8.97140146,16.2125667 9.40694891,15.7187187 9.93967883,15.7187187 L14.0505547,15.7187187 C14.5865693,15.7187187 15.0187883,16.2012813 15.0187883,16.80823 L15.0187883,23.9976838 L19.0894599,23.9976838 C19.6255182,23.9976838 20.0576934,23.5075811 20.0576934,22.9081725 L20.0576934,11.9751129 L23.3846277,11.9751129 C24.0447153,11.9751129 24.1787299,11.5754908 23.6829197,11.077848 L23.6829197,11.077848 Z" id="Shape"></path>
                    </g>
                </g>
            </g>
        </g>
    </g>
</svg>