<?xml version="1.0" encoding="UTF-8" standalone="no"?>
<svg width="24px" height="24px" viewBox="0 0 24 24" version="1.1" xmlns="http://www.w3.org/2000/svg" xmlns:xlink="http://www.w3.org/1999/xlink">
    <!-- Generator: Sketch 3.8.3 (29802) - http://www.bohemiancoding.com/sketch -->
    <title>Shape</title>
    <desc>Created with Sketch.</desc>
    <defs></defs>
    <g id="Symbols" stroke="none" stroke-width="1" fill="none" fill-rule="evenodd">
        <g id="Tab-Bar" transform="translate(-250.000000, -7.000000)" fill="#009CE6">
            <g id="hotel-with-three-floors-copy">
                <g transform="translate(250.000000, 7.000000)">
                    <g id="Capa_1">
                        <g id="hotel">
                            <path d="M19.5,2.4 L19.5,0 L4.5,0 L4.5,2.4 L0,2.4 L0,24 L9,24 L9,21.6 L15,21.6 L15,24 L24,24 L24,2.4 L19.5,2.4 L19.5,2.4 Z M10.5,18 L7.5,18 L7.5,15.6 L10.5,15.6 L10.5,18 L10.5,18 Z M10.5,13.2 L7.5,13.2 L7.5,10.8 L10.5,10.8 L10.5,13.2 L10.5,13.2 Z M10.5,8.4 L7.5,8.4 L7.5,6 L10.5,6 L10.5,8.4 L10.5,8.4 Z M16.5,18 L13.5,18 L13.5,15.6 L16.5,15.6 L16.5,18 L16.5,18 Z M16.5,13.2 L13.5,13.2 L13.5,10.8 L16.5,10.8 L16.5,13.2 L16.5,13.2 Z M16.5,8.4 L13.5,8.4 L13.5,6 L16.5,6 L16.5,8.4 L16.5,8.4 Z" id="Shape"></path>
                        </g>
                    </g>
                </g>
            </g>
        </g>
    </g>
</svg>